HIERARCHY
ROOT Hips
{
  OFFSET -69.4423 88.0299 51.6846
  CHANNELS 6 Xposition Yposition Zposition Zrotation Xrotation Yrotation
  JOINT Spine
  {
    OFFSET 12.0259 -0.162853 1.93176e-005
    CHANNELS 3 Zrotation Xrotation Yrotation
    JOINT Spine1
    {
      OFFSET 15.3169 -0.0121909 0
      CHANNELS 3 Zrotation Xrotation Yrotation
      JOINT Spine2
      {
        OFFSET 15.3176 -0.0121922 0
        CHANNELS 3 Zrotation Xrotation Yrotation
        JOINT Neck
        {
          OFFSET 19.9142 1.56236 0
          CHANNELS 3 Zrotation Xrotation Yrotation
          JOINT Head
          {
            OFFSET 6.92646 0 0
            CHANNELS 3 Zrotation Xrotation Yrotation
            End Site
            {
              OFFSET 20.7666 0 0
            }
          }
          JOINT LeftShoulder
          {
            OFFSET -4.94072 -1.14703 8.14416
            CHANNELS 3 Zrotation Xrotation Yrotation
            JOINT LeftArm
            {
              OFFSET 14.108 0 -2.74767e-005
              CHANNELS 3 Zrotation Xrotation Yrotation
              JOINT LeftForeArm
              {
                OFFSET 28.5802 -0.0783412 -0.0284884
                CHANNELS 3 Zrotation Xrotation Yrotation
                JOINT LeftHand
                {
                  OFFSET 27.092 0 0
                  CHANNELS 3 Zrotation Xrotation Yrotation
                  End Site
                  {
                    OFFSET 9.55928 -0.186424 0.145352
                  }
                }
              }
            }
          }
          JOINT RightShoulder
          {
            OFFSET -7.15748 -1.33027 -6.24935
            CHANNELS 3 Zrotation Xrotation Yrotation
            JOINT RightArm
            {
              OFFSET 14.108 0 1.82997e-005
              CHANNELS 3 Zrotation Xrotation Yrotation
              JOINT RightForeArm
              {
                OFFSET 28.5802 -0.0707221 2.30684e-005
                CHANNELS 3 Zrotation Xrotation Yrotation
                JOINT RightHand
                {
                  OFFSET 27.092 0 -1.30073e-005
                  CHANNELS 3 Zrotation Xrotation Yrotation
                  End Site
                  {
                    OFFSET 9.55929 -0.186417 -0.145354
                  }
                }
              }
            }
          }
        }
      }
    }
  }
  JOINT LeftUpLeg
  {
    OFFSET 0.00499725 -0.534999 8.837
    CHANNELS 3 Zrotation Xrotation Yrotation
    JOINT LeftLeg
    {
      OFFSET 39.9035 -0.00124594 0.000252775
      CHANNELS 3 Zrotation Xrotation Yrotation
      JOINT LeftFoot
      {
        OFFSET 39.6689 0 0
        CHANNELS 3 Zrotation Xrotation Yrotation
        JOINT LeftToe
        {
          OFFSET 10.1624 13.6296 0
          CHANNELS 3 Zrotation Xrotation Yrotation
          End Site
          {
            OFFSET 8.38147 0 0
          }
        }
      }
    }
  }
  JOINT RightUpLeg
  {
    OFFSET 0.00499725 -0.535 -8.837
    CHANNELS 3 Zrotation Xrotation Yrotation
    JOINT RightLeg
    {
      OFFSET 39.9036 -0.000268477 0.000106433
      CHANNELS 3 Zrotation Xrotation Yrotation
      JOINT RightFoot
      {
        OFFSET 39.6689 1.17892e-005 0
        CHANNELS 3 Zrotation Xrotation Yrotation
        JOINT RightToe
        {
          OFFSET 10.1624 13.6296 0
          CHANNELS 3 Zrotation Xrotation Yrotation
          End Site
          {
            OFFSET 8.38147 0 0
          }
        }
      }
    }
  }
}
MOTION
Frames:	19
Frame Time:	0.0333333
80.2516 88.7888 -56.5647 -164.538 89.4933 -105.884 0.880815 -0.180958 0.16548 1.76217 -0.358867 0.333885 1.76217 -0.358867 0.333872 -18.669 -7.00797 -16.6481 36.5655 -6.27669 26.4597 -165.317 -11.2374 -97.684 -19.2339 4.48276 81.3434 -22.3668 2.42228 -14.4752 15.7346 -85.9416 18.0474 -165.21 -13.3354 70.7751 -8.91236 -2.02392 -86.0552 -24.3508 -3.19857 15.0937 2.57102 81.9852 -2.42874 -3.34007 0.181488 -176.363 -17.9103 0.972815 -0.993406 3.89284 10.2349 0.60363 90 -2.78299e-015 -1.59028e-015 -11.3608 1.92799 167.512 -37.8541 -0.303399 0.116972 6.61206 7.58196 -0.312969 90 -5.56597e-015 -2.38542e-015 
79.1891 88.8475 -56.5261 -152.12 89.2685 -118.549 0.827651 -0.124623 0.200118 1.65574 -0.245842 0.402168 1.65573 -0.245854 0.402157 -18.3183 -7.11712 -16.5877 36.5732 -6.36591 26.5386 -165.681 -11.2435 -97.6856 -19.29 4.84369 81.1779 -22.4577 2.43469 -14.5045 14.9973 -85.8575 17.3463 -165.568 -13.3248 70.7834 -7.48962 -1.99665 -86.202 -24.0304 -3.12548 14.9178 2.44478 81.5394 -2.29088 -3.31545 -0.382039 -175.493 -17.6792 0.963835 -1.02642 3.99279 9.74104 0.609062 90 -1.11319e-014 -1.90833e-014 -10.7335 2.47918 165.809 -35.5759 -0.272783 0.142803 3.39903 7.6667 0.308301 90 3.97569e-016 1.59028e-015 
77.9652 88.8631 -56.4636 -146.963 89.0258 -124.008 0.770848 -0.0897185 0.249782 1.54209 -0.175581 0.500907 1.54209 -0.175578 0.500897 -18.1352 -7.13909 -16.5748 36.7705 -6.22638 26.7138 -165.853 -11.2113 -97.7015 -18.8384 4.82877 80.7907 -22.2123 2.39097 -14.3535 15.0169 -85.8108 17.45 -165.757 -13.2953 70.7543 -6.62968 -2.15609 -86.2968 -23.8095 -3.08348 14.8083 2.66493 81.4817 -2.50268 -2.92834 -0.965938 -174.402 -16.7429 0.949845 -1.07444 3.53902 9.38603 0.670538 90 -2.38542e-015 3.18055e-015 -10.2629 3.08648 164.418 -33.3957 -0.218601 0.146602 -2.26732 7.36439 1.31521 90 -9.14409e-015 -3.18055e-015 
76.6056 88.8309 -56.4228 -138.547 88.7442 -132.51 0.698292 -0.074178 0.234959 1.39682 -0.133871 0.470896 1.3968 -0.133883 0.470879 -17.912 -7.18215 -16.3553 36.891 -6.43159 26.3196 -166.035 -11.1213 -97.5228 -17.5843 4.88223 80.4504 -22.0365 2.36393 -14.2422 12.4522 -85.0237 14.8255 -165.951 -13.1923 70.9363 -5.40669 -2.42101 -86.5247 -23.859 -3.10388 14.838 2.78542 81.3162 -2.60879 -2.44313 -1.38271 -173.377 -15.4967 0.934577 -1.11273 2.75247 9.57524 0.779786 90 -1.23246e-014 -4.77083e-015 -9.80983 3.66146 163.099 -32.0277 -0.175565 0.154394 -5.02073 7.05563 1.75925 90 -1.59028e-014 3.18055e-015 
75.0481 88.7777 -56.375 -128.969 88.3752 -142.326 0.675018 -0.0820184 0.234222 1.35044 -0.160794 0.469555 1.35042 -0.1608 0.469542 -17.7339 -7.19515 -16.2793 36.8582 -6.32881 26.4264 -166.198 -11.0848 -97.5027 -17.4174 5.47317 79.7655 -22.0582 2.35885 -14.2096 13.8248 -85.5502 16.1851 -166.12 -13.1305 70.9961 -4.70244 -2.59852 -86.7576 -24.2989 -3.20857 15.0649 2.99108 81.9633 -2.81599 -2.06629 -2.11157 -172.104 -14.6674 0.912231 -1.14804 2.35403 9.27212 0.827926 90 1.82882e-014 4.77083e-015 -9.2375 4.3814 162.266 -31.0452 -0.146089 0.163047 -6.6344 7.12221 2.07755 90 1.66979e-014 3.18055e-015 
73.3263 88.726 -56.4159 -127.827 87.963 -143.639 0.608087 -0.104513 0.252965 1.21666 -0.205848 0.507182 1.21665 -0.205858 0.507173 -17.4978 -7.12848 -16.1101 36.7308 -6.35524 25.989 -166.368 -10.8932 -97.3936 -16.1377 5.25774 79.3173 -21.7447 2.30769 -14.0227 12.3037 -84.8653 14.6566 -166.313 -12.9508 71.097 -4.36995 -2.69728 -86.5749 -24.4788 -3.2489 15.1542 3.00601 82.4258 -2.83743 -2.00382 -2.92106 -170.823 -14.0855 0.890131 -1.1799 1.68579 8.98591 0.898109 90 -1.15295e-014 1.11319e-014 -8.95471 5.12335 161.603 -30.066 -0.114919 0.144737 -10.4592 5.16557 2.12774 90 -1.27222e-014 -9.93923e-016 
71.4767 88.482 -56.3708 -114.223 87.4262 -157.151 0.646335 -0.181667 0.196554 1.29331 -0.360627 0.395318 1.2933 -0.360623 0.395305 -17.3561 -7.06459 -16.1748 36.8042 -6.09218 26.126 -166.473 -10.7991 -97.4713 -15.1159 4.85724 78.5275 -21.1485 2.20263 -13.6871 11.5955 -84.3392 13.8208 -166.465 -12.8919 70.9994 -4.28628 -2.94187 -86.5868 -24.9615 -3.3668 15.4073 3.03058 82.55 -2.86769 -1.42023 -4.04446 -169.784 -13.3999 0.865221 -1.22069 1.53898 8.09162 0.835004 90 -1.03368e-014 -4.77083e-015 -8.0117 5.94024 160.962 -29.372 -0.10054 0.134427 -13.3047 3.20364 1.80671 90 -1.25234e-014 -2.38542e-015 
69.4386 88.2831 -56.3545 -107.642 86.7864 -163.655 0.699202 -0.264217 0.158228 1.39916 -0.526005 0.319832 1.39915 -0.526016 0.319825 -17.5666 -6.9646 -16.0896 36.9424 -6.04584 25.8573 -166.177 -10.6894 -97.3227 -12.9099 3.6908 77.8398 -20.3812 2.0797 -13.2674 8.52176 -82.3849 10.6937 -166.227 -12.8323 71.1005 -5.03463 -3.08383 -86.395 -25.5171 -3.49976 15.6962 3.14645 83.03 -2.98514 -1.16581 -5.63634 -168.645 -13.3096 0.838056 -1.25487 1.15476 6.92952 0.756657 90 -3.02153e-014 -1.90833e-014 -7.07038 6.68431 160.773 -28.6903 -0.119076 0.132281 -14.3699 1.23136 1.14383 90 -2.34566e-014 -2.38542e-014 
67.1533 87.8399 -56.3128 -100.955 86.0457 -170.261 0.741771 -0.333252 0.107233 1.48422 -0.664599 0.21893 1.4842 -0.664611 0.218921 -17.4194 -6.84965 -16.2359 37.0023 -5.78346 25.8459 -166.317 -10.5746 -97.5584 -13.8734 4.15886 77.0758 -20.8554 2.14664 -13.4804 10.403 -83.5421 12.7158 -166.38 -12.734 70.9314 -5.30432 -3.29617 -86.4177 -25.9571 -3.60508 15.9184 3.12975 83.1065 -2.9686 -1.24826 -6.63385 -167.294 -14.0692 0.816825 -1.24006 1.42864 6.31117 0.70689 90 -1.15295e-014 -1.27222e-014 -5.87716 7.52256 161.072 -28.134 -0.165021 0.136699 -13.9661 -0.662121 0.379174 90 -1.03368e-014 -1.59028e-015 
64.6798 87.2675 -56.2293 -96.1796 85.3403 -174.805 0.767849 -0.389094 0.0482321 1.53608 -0.777036 0.101848 1.53607 -0.777043 0.101834 -16.9425 -6.71982 -16.1582 37.0028 -5.74257 25.216 -166.717 -10.2782 -97.6196 -13.6829 4.15742 76.3803 -21.0108 2.16742 -13.5451 9.28407 -83.0798 11.4889 -166.805 -12.4549 70.8937 -5.57933 -3.25729 -86.3102 -25.8974 -3.59135 15.8905 3.06824 82.8848 -2.90716 -1.54099 -7.91616 -165.974 -15.2711 0.797369 -1.20904 1.39044 5.68539 0.686268 90 -1.35174e-014 3.18055e-015 -4.7825 7.59072 161.567 -28.1589 -0.231202 0.156593 -8.75231 -1.52504 -0.0819839 90 -1.51076e-014 -3.18055e-015 
61.9575 86.6904 -56.0151 -91.2015 84.8974 -179.65 0.778266 -0.359352 -0.0322591 1.55721 -0.718631 -0.0594829 1.5572 -0.718634 -0.0594954 -16.5121 -6.51575 -16.1671 37.3964 -5.39927 24.7714 -167.077 -9.96351 -97.7849 -13.4482 4.39446 75.5772 -21.4377 2.23308 -13.7521 9.39824 -83.6039 11.471 -167.186 -12.1432 70.7844 -5.98027 -3.59275 -86.5122 -25.9794 -3.60892 15.9336 3.28393 83.2722 -3.1204 -1.72005 -9.0174 -164.432 -16.9678 0.775355 -1.15425 1.4235 4.98863 0.653293 90 8.74653e-015 -4.77083e-015 -3.37654 6.43104 162.549 -27.7939 -0.280002 0.164155 -3.00741 -0.37435 0.0249429 90 -1.19271e-014 -1.59028e-015 
59.029 86.2711 -56.0317 -89.4883 84.2545 178.748 0.792051 -0.329031 -0.0880415 1.58371 -0.658752 -0.171385 1.5837 -0.65876 -0.171399 -16.2648 -6.3557 -16.097 37.9033 -5.28053 24.1522 -167.266 -9.69552 -97.8434 -13.2834 4.48192 75.1396 -22.319 2.3889 -14.2113 9.5214 -83.8645 11.5965 -167.371 -11.8945 70.7822 -6.07569 -3.33385 -86.5392 -25.4 -3.46152 15.6294 3.23148 83.1044 -3.06733 -1.86959 -10.5217 -162.675 -17.733 0.737958 -1.11842 -0.0150154 4.84484 0.713885 90 -3.97569e-014 -1.27222e-014 -2.69396 4.28019 163.863 -26.6528 -0.324719 0.163378 0.490534 -0.0799902 -0.0794632 90 1.31198e-014 1.59028e-015 
55.8379 86.1718 -56.1572 -88.6619 83.8279 177.453 0.840523 -0.262114 -0.0222645 1.68099 -0.524042 -0.0405267 1.68097 -0.524058 -0.0405399 -16.0523 -6.20271 -16.2595 38.223 -4.98 23.9796 -167.458 -9.50169 -98.1181 -12.2213 3.87624 75.08 -23.3147 2.58786 -14.7565 9.39195 -84.0393 11.5586 -167.564 -11.7498 70.5431 -6.39846 -2.85666 -86.3951 -24.5016 -3.24047 15.1601 2.99527 82.6177 -2.83222 -1.87696 -11.7184 -160.197 -18.0326 0.676703 -1.05989 -2.79054 4.98236 0.855191 90 -1.35174e-014 -9.54166e-015 -2.5498 1.87667 166.344 -25.7808 -0.381429 0.159453 4.29926 0.754937 -0.188282 90 3.57812e-015 8.74653e-015 
52.4639 86.3468 -56.4402 -85.2793 84.6018 172.767 1.00335 0.00568858 0.167565 2.00669 0.0147743 0.335155 2.00668 0.0147767 0.335152 -16.2973 -6.10105 -15.8972 38.2812 -4.99261 23.5236 -167.146 -9.3545 -97.8004 -10.8793 3.49447 75.4112 -24.5729 2.85211 -15.447 10.6129 -84.87 12.8007 -167.205 -11.6204 70.8995 -6.49918 -1.87288 -86.3292 -23.3264 -2.95006 14.515 2.27155 81.3155 -2.11163 -1.13253 -12.2583 -157.027 -17.9722 0.584571 -0.974472 -6.78409 3.66457 0.634812 90 -1.55052e-014 -9.54166e-015 -2.86702 0.636308 170.087 -25.3935 -0.444743 0.155154 5.72529 1.86034 -0.169696 90 -7.7526e-015 -7.95139e-015 
49.2303 86.805 -56.7936 -78.7617 85.9076 164.566 1.23285 0.329477 0.460798 2.46307 0.66926 0.914571 2.46307 0.669257 0.91456 -16.6748 -5.98242 -15.9528 38.1109 -4.75072 23.6704 -166.765 -9.35893 -97.8429 -9.32298 2.81609 76.2469 -25.4057 3.04855 -15.9266 11.7219 -85.3988 13.9279 -166.787 -11.6313 70.8671 -7.16295 -1.09449 -85.9439 -22.8371 -2.8288 14.2397 1.88053 80.3767 -1.72418 -0.826868 -12.3233 -154.176 -19.2486 0.479379 -0.843891 -10.4724 0.870654 -0.302037 90 -1.86858e-014 -1.03368e-014 -3.141 2.14999 173.954 -25.0385 -0.508919 0.140463 5.38714 1.4239 -0.119291 90 -3.97569e-015 3.18055e-015 
46.5123 87.2388 -57.1209 -69.3065 87.4239 154.386 1.37172 0.617713 0.567949 2.73749 1.24933 1.12118 2.73748 1.24932 1.12117 -16.7541 -5.83325 -15.6415 37.7863 -4.60463 23.3183 -166.628 -9.19899 -97.5761 -9.17233 3.15351 77.1911 -25.9499 3.17169 -16.2319 16.7352 -86.875 19.0018 -166.59 -11.4096 71.1659 -9.29639 -0.985912 -85.3654 -22.8285 -2.82181 14.2255 2.01665 80.3333 -1.81881 -1.6211 -12.6239 -153.615 -22.2142 0.397916 -0.740099 -13.3418 -3.13386 -1.98613 90 -2.10712e-014 -3.18055e-014 -3.55015 2.187 176.23 -24.2369 -0.551681 0.113728 5.24981 -0.194245 -0.207547 90 2.98177e-015 -1.59028e-015 
44.2764 87.5912 -57.5817 -72.9946 87.2592 158.638 1.44269 0.488638 0.486007 2.88136 0.989825 0.95977 2.88134 0.989824 0.959753 -16.9427 -5.66305 -15.531 38.4178 -4.38011 22.9469 -166.41 -9.07905 -97.4627 -9.49529 3.40334 78.2503 -25.8818 3.15827 -16.2277 10.3483 -85.4781 12.5651 -166.343 -11.2576 71.2962 -11.8698 -1.56877 -84.3282 -23.812 -3.04649 14.7613 2.23945 81.456 -2.06236 -3.84483 -13.6334 -155.447 -25.7052 0.436489 -0.721646 -11.8461 -4.31472 -2.19237 90 6.75868e-015 2.38542e-015 -4.07468 2.06361 177.203 -24.3593 -0.574635 0.0938245 4.97558 -0.0512663 -0.213097 90 -1.11319e-014 1.82882e-014 
42.3308 87.9925 -57.8386 -66.0718 87.7742 152.07 1.43857 0.509988 0.478165 2.87307 1.03221 0.939007 2.87307 1.03221 0.938997 -16.9106 -5.50206 -15.3937 39.1047 -4.21272 22.4116 -166.417 -8.91704 -97.3552 -10.1697 4.12358 79.4664 -25.3511 3.04144 -15.9747 6.88713 -83.697 9.01407 -166.33 -11.0333 71.4231 -13.3988 -2.74762 -83.2951 -25.7091 -3.50385 15.7724 2.29527 82.0249 -2.18089 -5.97305 -13.8498 -158.174 -29.8646 0.591508 -0.704842 -6.10887 -0.565411 -0.469017 90 -6.36111e-015 -6.36111e-015 -4.29219 2.7726 178.178 -24.4225 -0.591908 0.0726382 4.96875 -0.164579 -0.282931 90 -3.57812e-015 -3.18055e-015 
40.7063 88.1191 -58.3018 -67.8671 87.658 154.18 1.43962 0.349874 0.484386 2.87631 0.712269 0.960017 2.8763 0.712256 0.959999 -16.9184 -5.30025 -15.4693 39.2834 -3.85343 22.2223 -166.396 -8.78501 -97.4084 -10.09 4.23732 80.4724 -24.1665 2.80556 -15.3878 5.13416 -81.5392 7.14022 -166.301 -10.8861 71.3247 -13.2229 -3.36942 -82.3329 -26.7783 -3.7915 16.3384 3.33365 84.0485 -3.18963 -8.50037 -13.8647 -161.568 -33.1525 0.706438 -0.641259 -1.37959 5.18632 0.753053 90 -1.35174e-014 -1.59028e-015 -5.07297 3.10341 179.145 -25.3521 -0.59236 0.0438239 5.15678 0.593361 -0.310728 90 5.36719e-015 2.38542e-015 
